<svg width="45" height="45" viewBox="0 0 45 45" fill="none" xmlns="http://www.w3.org/2000/svg">
<path d="M28.3416 41.9709C27.5506 41.9709 26.8841 41.7 26.3419 41.1581C25.8 40.6159 25.5291 39.9494 25.5291 39.1584C25.5291 38.5359 25.7069 37.9855 26.0625 37.507C26.4181 37.0289 26.8653 36.69 27.4041 36.4903V24.9052C26.8653 24.7055 26.4181 24.3744 26.0625 23.9119C25.7069 23.4491 25.5291 22.9063 25.5291 22.2834C25.5291 21.4928 25.8 20.8264 26.3419 20.2842C26.8841 19.742 27.5506 19.4709 28.3416 19.4709C29.1322 19.4709 29.7986 19.742 30.3408 20.2842C30.883 20.8264 31.1541 21.4928 31.1541 22.2834C31.1541 22.9063 30.9761 23.4491 30.6202 23.9119C30.2645 24.3744 29.8175 24.7055 29.2791 24.9052V31.8459L37.5 29.1094V24.9052C36.9616 24.7055 36.5144 24.3744 36.1584 23.9119C35.8028 23.4491 35.625 22.9063 35.625 22.2834C35.625 21.4928 35.8961 20.8264 36.4383 20.2842C36.9802 19.742 37.6466 19.4709 38.4375 19.4709C39.2284 19.4709 39.8948 19.742 40.4367 20.2842C40.9789 20.8264 41.25 21.4928 41.25 22.2834C41.25 22.9063 41.0722 23.4491 40.7166 23.9119C40.3606 24.3744 39.9134 24.7055 39.375 24.9052V30.4472L29.2791 33.8006V36.4903C29.8175 36.69 30.2645 37.0289 30.6202 37.507C30.9761 37.9855 31.1541 38.5359 31.1541 39.1584C31.1541 39.9494 30.883 40.6159 30.3408 41.1581C29.7986 41.7 29.1322 41.9709 28.3416 41.9709ZM8.65406 35.625C7.79094 35.625 7.07031 35.3359 6.49219 34.7578C5.91406 34.1797 5.625 33.4591 5.625 32.5959V12.4041C5.625 11.5409 5.91406 10.8203 6.49219 10.2422C7.07031 9.66406 7.79094 9.375 8.65406 9.375H17.993L21.743 13.125H37.5C38.0025 13.125 38.4406 13.3119 38.8144 13.6856C39.1881 14.0594 39.375 14.4975 39.375 15H20.9892L17.2392 11.25H8.65406C8.3175 11.25 8.04094 11.3581 7.82437 11.5744C7.60812 11.7909 7.5 12.0675 7.5 12.4041V32.5959C7.5 32.9325 7.60812 33.2091 7.82437 33.4256C8.04094 33.6419 8.3175 33.75 8.65406 33.75H21.0577V35.625H8.65406Z" fill="#021212"/>
</svg>
