<svg width="30" height="30" viewBox="0 0 30 30" fill="none" xmlns="http://www.w3.org/2000/svg">
<path fill-rule="evenodd" clip-rule="evenodd" d="M25.8183 25.8181C26.473 25.1633 26.9837 24.3791 27.3177 23.5155C27.6391 22.6885 27.8588 21.7436 27.922 20.3599C27.9852 18.9733 28.0002 18.5306 28.0002 15C28.0002 11.4695 27.9852 11.0266 27.922 9.64017C27.8588 8.25642 27.6391 7.31145 27.3177 6.48456C26.9913 5.61713 26.4796 4.83135 25.8183 4.18201C25.1689 3.52056 24.3831 3.00875 23.5155 2.68225C22.6886 2.36112 21.7436 2.14139 20.3599 2.07849C18.9735 2.01497 18.5307 2 15.0001 2C11.4695 2 11.0267 2.01497 9.64027 2.07823C8.25652 2.14139 7.31156 2.36112 6.48466 2.68251C5.61724 3.00893 4.83145 3.52064 4.18211 4.18195C3.52065 4.83126 3.0088 5.61704 2.68225 6.48451C2.36112 7.31145 2.14139 8.25642 2.07849 9.64017C2.01497 11.0266 2 11.4694 2 15C2 18.5306 2.01497 18.9735 2.07849 20.3599C2.14165 21.7436 2.36138 22.6886 2.68277 23.5155C3.00919 24.3829 3.5209 25.1687 4.18221 25.818C4.83155 26.4794 5.61734 26.9911 6.48476 27.3175C7.31171 27.6389 8.25668 27.8586 9.64037 27.9218C11.027 27.985 11.4697 28 15.0002 28C18.5308 28 18.9737 27.985 20.3601 27.9218C21.7438 27.8586 22.6888 27.6389 23.5157 27.3175C24.3793 26.9835 25.1635 26.4728 25.8183 25.8181ZM3.99898 13.4699V13.4701V13.4703C3.99949 13.8908 4.00009 14.391 4.00009 15C4.00009 15.6091 3.99949 16.1093 3.99898 16.5298V16.53V16.5301C3.99699 18.1719 3.99647 18.5971 4.03926 19.531C4.09249 20.7019 4.15645 21.5622 4.35176 22.2107C4.53951 22.834 4.75009 23.4685 5.43759 24.2341C6.12509 24.9997 6.78823 25.3465 7.63291 25.6013C8.47758 25.8561 9.5392 25.9108 10.461 25.9529C11.5066 26.0006 11.921 26.0005 14.1143 25.9999L15.0001 25.9997C15.5861 25.9997 16.0714 26.0003 16.4818 26.0007C18.1639 26.0026 18.5885 26.003 19.5315 25.9598C20.7024 25.9066 21.5627 25.8426 22.2112 25.6473C22.8345 25.4596 23.469 25.249 24.2346 24.5615C25.0002 23.874 25.347 23.2108 25.6018 22.3662C25.8566 21.5215 25.9113 20.4599 25.9534 19.538C26.001 18.4938 26.0009 18.0805 26.0003 15.895V15.8948L26.0001 15.0008L26.0003 14.1149C26.0009 11.9217 26.001 11.5073 25.9533 10.4617C25.9112 9.53986 25.8565 8.47825 25.6017 7.63357C25.347 6.78889 25.0002 6.12576 24.2345 5.43826C23.4689 4.75076 22.8344 4.54017 22.2111 4.35243C21.5627 4.15711 20.7023 4.09315 19.5314 4.03993C18.5884 3.99672 18.1639 3.99718 16.4818 3.99903H16.4816H16.4813C16.0709 3.99948 15.5858 4.00001 15.0001 4.00001L14.1141 3.99986C11.921 3.99927 11.5066 3.99916 10.461 4.04686C9.5392 4.08892 8.47758 4.14367 7.63291 4.39843C6.78823 4.65319 6.12509 4.99999 5.43759 5.76561C4.75009 6.53124 4.53951 7.16573 4.35176 7.78905C4.15645 8.43749 4.09249 9.29787 4.03926 10.4687C3.99647 11.4026 3.99699 11.828 3.99898 13.4699ZM14.9999 10.0003C12.2387 10.0003 10.0002 12.2387 10.0002 15C10.0002 17.7612 12.2387 19.9997 14.9999 19.9997C17.7612 19.9997 19.9996 17.7612 19.9996 15C19.9996 12.2387 17.7612 10.0003 14.9999 10.0003ZM9.00024 15C9.00024 11.6865 11.6864 9.00031 14.9999 9.00031C18.3134 9.00031 20.9996 11.6865 20.9996 15C20.9996 18.3135 18.3134 20.9997 14.9999 20.9997C11.6864 20.9997 9.00024 18.3135 9.00024 15ZM21.9395 9.56061C22.7679 9.56061 23.4395 8.88904 23.4395 8.06061C23.4395 7.23218 22.7679 6.56061 21.9395 6.56061C21.111 6.56061 20.4395 7.23218 20.4395 8.06061C20.4395 8.88904 21.111 9.56061 21.9395 9.56061Z" fill="white"/>
</svg>
