<svg width="177" height="80" viewBox="0 0 177 80" fill="none" xmlns="http://www.w3.org/2000/svg">
<path d="M1.36 42.61L10.778 35.64H13.872V37.238L5.1 43.732L13.872 50.226V51.824H10.778L1.36 44.888V42.61ZM41.3631 54H30.5511V50.974H40.3091L41.6691 49.818V48.696L40.2411 47.37H33.4751L30.3131 44.514V40.672L33.4751 37.816H43.9471V40.842H34.6311L33.3391 41.998V43.188L34.6311 44.344H41.4311L44.6951 47.37V51.246L41.3631 54ZM60.4687 53.966V53.014L59.3127 54H50.8467L47.4127 51.144V40.604L50.8467 37.782H59.3127L60.4687 38.768V37.782H63.5627V53.966H60.4687ZM60.4687 42.848L58.6327 40.876H51.9687L50.5407 42.066V49.716L51.9687 50.872H58.8027L60.4687 49.308V42.848ZM75.9193 54H72.8593L66.6373 46.894V37.748H69.7653V45.704L74.2533 50.872H74.4233L78.6053 45.806V37.748H81.6993V46.928L75.9193 54ZM84.7742 54V50.158H87.5622V54H84.7742ZM90.984 35.776V32.546H93.738V35.776H90.984ZM90.95 54V37.748H93.704V54H90.95ZM108.958 54.068H100.526L96.7858 51.28V40.536L100.526 37.782H108.958L112.698 40.536V51.28L108.958 54.068ZM109.57 42.134L107.904 40.876H101.58L99.9138 42.134V49.682L101.58 50.94H107.904L109.57 49.682V42.134ZM126.259 42.236L124.389 40.876H120.445L118.847 42.1V54H115.753V37.748H118.847V39.142L120.445 37.748H125.443L128.061 39.754L126.259 42.236ZM133.88 51.824H130.786V50.226L139.558 43.732L130.786 37.238V35.64H133.88L143.298 42.61V44.888L133.88 51.824Z" fill="#D9D9D9"/>
<path d="M25.1002 31.322L21.8702 54.272L18.3682 57.026L16.6002 54.442L19.0822 52.47L22.3122 29.52L25.8142 26.766L27.5822 29.384L25.1002 31.322Z" fill="#5EEB5B"/>
</svg>
