<svg width="45" height="45" viewBox="0 0 45 45" fill="none" xmlns="http://www.w3.org/2000/svg">
<path d="M10.5291 37.5C9.66594 37.5 8.94531 37.2109 8.36719 36.6328C7.78906 36.0547 7.5 35.3341 7.5 34.4709V10.5291C7.5 9.66594 7.78906 8.94531 8.36719 8.36719C8.94531 7.78906 9.66594 7.5 10.5291 7.5H34.4709C35.3341 7.5 36.0547 7.78906 36.6328 8.36719C37.2109 8.94531 37.5 9.66594 37.5 10.5291V34.4709C37.5 35.3341 37.2109 36.0547 36.6328 36.6328C36.0547 37.2109 35.3341 37.5 34.4709 37.5H10.5291ZM9.375 16.8712H35.625V10.5291C35.625 10.2403 35.5048 9.97578 35.2645 9.73547C35.0242 9.49516 34.7597 9.375 34.4709 9.375H10.5291C10.2403 9.375 9.97578 9.49516 9.73547 9.73547C9.49516 9.97578 9.375 10.2403 9.375 10.5291V16.8712ZM9.375 26.2537H35.625V18.7462H9.375V26.2537ZM10.5291 35.625H34.4709C34.7597 35.625 35.0242 35.5048 35.2645 35.2645C35.5048 35.0242 35.625 34.7597 35.625 34.4709V28.1287H9.375V34.4709C9.375 34.7597 9.49516 35.0242 9.73547 35.2645C9.97578 35.5048 10.2403 35.625 10.5291 35.625ZM12.6923 14.632V11.6034H15.7209V14.632H12.6923ZM12.6923 24.0145V20.9855H15.7209V24.0145H12.6923ZM12.6923 33.3966V30.368H15.7209V33.3966H12.6923Z" fill="#021212"/>
</svg>
