<svg width="965" height="512" viewBox="0 0 965 512" fill="none" xmlns="http://www.w3.org/2000/svg">
<path fill-rule="evenodd" clip-rule="evenodd" d="M883.5 32C883.5 32.8284 882.828 33.5 882 33.5H879.667V32.5H882C882.276 32.5 882.5 32.2761 882.5 32L882.5 22C882.5 21.7239 882.276 21.5 882 21.5L872 21.5C871.724 21.5 871.5 21.7239 871.5 22V24.3333H870.5V22C870.5 21.1716 871.172 20.5 872 20.5L882 20.5C882.828 20.5 883.5 21.1716 883.5 22L883.5 32ZM878 24.4999C878.828 24.4999 879.5 25.1715 879.5 25.9999V35.9999C879.5 36.8284 878.828 37.4999 878 37.4999H868C867.172 37.4999 866.5 36.8284 866.5 35.9999V25.9999C866.5 25.1715 867.172 24.4999 868 24.4999H878ZM878.5 25.9999C878.5 25.7238 878.276 25.4999 878 25.4999H868C867.724 25.4999 867.5 25.7238 867.5 25.9999V35.9999C867.5 36.2761 867.724 36.4999 868 36.4999H878C878.276 36.4999 878.5 36.2761 878.5 35.9999V25.9999Z" fill="white"/>
<path fill-rule="evenodd" clip-rule="evenodd" d="M936.02 22.687C936.215 22.4918 936.215 22.1752 936.02 21.9799C935.825 21.7847 935.508 21.7847 935.313 21.9799L929 28.2931L922.687 21.9799C922.492 21.7847 922.175 21.7847 921.98 21.9799C921.784 22.1752 921.784 22.4918 921.98 22.687L928.293 29.0002L921.98 35.3133C921.784 35.5085 921.784 35.8251 921.98 36.0204C922.175 36.2156 922.492 36.2156 922.687 36.0204L929 29.7073L935.313 36.0204C935.508 36.2156 935.825 36.2156 936.02 36.0204C936.215 35.8251 936.215 35.5085 936.02 35.3133L929.707 29.0002L936.02 22.687Z" fill="white"/>
<path fill-rule="evenodd" clip-rule="evenodd" d="M810.167 30C810.167 29.7239 810.391 29.5 810.667 29.5H823.333C823.61 29.5 823.833 29.7239 823.833 30C823.833 30.2761 823.61 30.5 823.333 30.5H810.667C810.391 30.5 810.167 30.2761 810.167 30Z" fill="white"/>
<rect width="965" height="512" rx="15" fill="black" fill-opacity="0.3"/>
<path d="M0 15C0 6.71573 6.71573 0 15 0H950C958.284 0 965 6.71573 965 15V57H0V15Z" fill="black" fill-opacity="0.3"/>
</svg>
