<svg width="30" height="30" viewBox="0 0 30 30" fill="none" xmlns="http://www.w3.org/2000/svg">
<path fill-rule="evenodd" clip-rule="evenodd" d="M3 2C2.44772 2 2 2.44772 2 3V27C2 27.5523 2.44772 28 3 28H27C27.5523 28 28 27.5523 28 27V3C28 2.44772 27.5523 2 27 2H3ZM9.90001 12V24H6.10001V12H9.90001ZM10.15 8.01C10.15 9.19741 9.18742 10.16 8.00001 10.16C6.81259 10.16 5.85001 9.19741 5.85001 8.01C5.85001 6.82259 6.81259 5.86 8.00001 5.86C9.18742 5.86 10.15 6.82259 10.15 8.01ZM24 16.7143C24 13.1042 21.6669 11.7007 19.349 11.7007C18.59 11.6633 17.8344 11.8224 17.1575 12.1621C16.6434 12.4201 16.1053 13.0105 15.6903 14.0371H15.5836V12.0009H12V24.0095H15.8123V17.6224C15.7572 16.9683 15.9665 16.1228 16.3948 15.6197C16.8231 15.1166 17.4358 14.9965 17.9003 14.9355H18.0452C19.2575 14.9355 20.1572 15.686 20.1572 17.5774V24.0095H23.9695L24 16.7143Z" fill="white"/>
</svg>
